Coordinates
version=1
nRows=6
nColumns=107
inDegrees=yes

Units are S.I. units (second, meters, Newtons, ...)
If the header above contains a line with 'inDegrees', this indicates whether rotational values are in degrees (yes) or radians (no).

endheader
time	sternoclavicular_r2	sternoclavicular_r3	unrotscap_r3	unrotscap_r2	acromioclavicular_r2	acromioclavicular_r3	acromioclavicular_r1	unrothum_r1	unrothum_r3	unrothum_r2	elv_angle	shoulder_elv	shoulder1_r2	shoulder_rot	elbow_flexion	pro_sup	deviation	flexion	proximal_distal_r1	proximal_distal_r3	cmc_flexion	cmc_abduction	mp_flexion	ip_flexion	mcp2_flexion	mcp2_abduction	pm2_flexion	md2_flexion	mcp3_flexion	mcp3_abduction	pm3_flexion	md3_flexion	mcp4_flexion	mcp4_abduction	pm4_flexion	md4_flexion	mcp5_flexion	mcp5_abduction	pm5_flexion	md5_flexion	bicpt_tx	bicpt_ty	bicpt_tz	bicpt2_tx	bicpt2_ty	bicpt2_tz	ptpt_tx	ptpt_ty	ptpt_tz	FCUpt_tx	FCUpt_ty	FCUpt_tz	EDCpt_tx	EDCpt_ty	EDCpt_tz	APLpt_tx	APLpt_ty	APLpt_tz	FPLpt_tx	FPLpt_ty	FPLpt_tz	FPLpt2_tx	FPLpt2_ty	FPLpt2_tz	PEC1pt2_tx	PEC1pt2_ty	PEC1pt2_tz	PEC1pt3_tx	PEC1pt3_ty	PEC1pt3_tz	PEC2pt2_tx	PEC2pt2_ty	PEC2pt2_tz	PEC2pt3_tx	PEC2pt3_ty	PEC2pt3_tz	PEC3pt2_tx	PEC3pt2_ty	PEC3pt2_tz	PEC3pt3_tx	PEC3pt3_ty	PEC3pt3_tz	DELT2pt2a_tx	DELT2pt2a_ty	DELT2pt2a_tz	DELT2pt2_tx	DELT2pt2_ty	DELT2pt2_tz	LAT1pt2_tx	LAT1pt2_ty	LAT1pt2_tz	LAT1pt3_tx	LAT1pt3_ty	LAT1pt3_tz	LAT2pt2_tx	LAT2pt2_ty	LAT2pt2_tz	LAT2pt3_tx	LAT2pt3_ty	LAT2pt3_tz	LAT3pt2_tx	LAT3pt2_ty	LAT3pt2_tz	LAT3pt3_tx	LAT3pt3_ty	LAT3pt3_tz
      1.16666667	     -0.32118095	      0.13603709	     -0.13603709	      0.32118095	     -0.06503261	      0.52557067	      0.23624040	     -0.23624040	     -0.52557067	      0.06503261	     98.28097050	     76.04244494	     -1.71532653	    -22.55956606	     30.10205391	     28.09785950	      0.10001700	     -0.56750482	      0.12754935	     -0.28375241	      6.49850887	     11.70494934	    -38.70534423	    -59.53955627	     14.29284601	     12.97099466	     11.26591088	    -22.84944427	     77.19292272	      9.25601745	     76.90603517	     30.67757427	     71.35558733	     -8.53727227	     71.13475225	     26.42817133	     17.97357240	    -13.84910230	    -15.21954569	      4.85018769	      0.00089568	     -0.03105016	     -0.00485573	      0.01639013	     -0.01837737	     -0.00864129	      0.00547389	     -0.06624245	     -0.00231343	      0.00660381	     -0.18372254	     -0.00024859	     -0.00337174	      0.00091794	      0.00019348	      0.00031093	      0.00012437	      0.00062186	      0.00039799	      0.00119397	      0.00067161	      0.00003716	     -0.00013900	     -0.00016681	      0.00249250	      0.00874489	      0.00608340	     -0.00815345	      0.01968656	     -0.01867266	      0.00249250	      0.00874489	      0.00608340	      0.00054920	      0.01825020	     -0.00958981	      0.00394322	      0.00486292	      0.01595610	      0.00000000	      0.00773306	      0.00000000	     -0.00713955	     -0.03299400	     -0.00637600	      0.01520945	     -0.00051182	     -0.00423744	     -0.00088716	      0.01487054	     -0.00608340	      0.00245026	      0.02146089	     -0.01774325	     -0.00595666	      0.01288498	     -0.00544971	     -0.01242028	      0.02720632	     -0.03045925	     -0.02331970	      0.01440583	     -0.00730853	     -0.01546198	      0.03143090	     -0.03806350
      1.20000000	     -0.32127570	      0.13607722	     -0.13607722	      0.32127570	     -0.06505179	      0.52572571	      0.23631009	     -0.23631009	     -0.52572571	      0.06505179	     98.06617801	     76.06487657	     -1.71157769	    -22.53053115	     30.61658540	     29.23347015	      0.11521625	     -0.49605999	      0.14549919	     -0.24803000	      5.74574741	     10.62265842	    -37.17351751	    -57.42680327	     12.57936733	     12.50294218	     12.80559769	    -23.53477947	     76.56239026	      8.95536956	     76.08557344	     33.49267741	     70.27979773	     -7.82136562	     71.31944373	     28.69356792	     17.54508546	    -13.34649452	    -15.56314798	      4.89503816	      0.00091270	     -0.03110913	     -0.00486523	      0.01642170	     -0.01851715	     -0.00853811	      0.00538998	     -0.06629671	     -0.00240491	      0.00671416	     -0.18370258	     -0.00026634	     -0.00350801	      0.00096016	      0.00019230	      0.00030146	      0.00012059	      0.00060293	      0.00038587	      0.00115762	      0.00065116	      0.00003846	     -0.00012531	     -0.00015037	      0.00249324	      0.00874747	      0.00608520	     -0.00815585	      0.01969237	     -0.01867817	      0.00249324	      0.00874747	      0.00608520	      0.00054936	      0.01825559	     -0.00959263	      0.00394407	      0.00486436	      0.01595818	      0.00000000	      0.00773766	      0.00000000	     -0.00714165	     -0.03300373	     -0.00637982	      0.01519368	     -0.00051090	     -0.00422623	     -0.00088742	      0.01487492	     -0.00608520	      0.00245098	      0.02146722	     -0.01774849	     -0.00595842	      0.01288878	     -0.00545132	     -0.01242394	      0.02721435	     -0.03046823	     -0.02332658	      0.01441008	     -0.00731069	     -0.01546654	      0.03144018	     -0.03807473
      1.23333333	     -0.32137379	      0.13611877	     -0.13611877	      0.32137379	     -0.06507165	      0.52588623	      0.23638224	     -0.23638224	     -0.52588623	      0.06507165	     98.21152249	     76.08810103	     -1.71411443	    -22.44507413	     30.24247427	     29.27644965	      0.11430519	     -0.52654582	      0.14443407	     -0.26327291	      6.94842035	     11.90556783	    -38.95725111	    -59.71682746	     13.82000684	     13.04005933	     11.21569361	    -22.69309728	     77.39565242	      9.53126126	     76.73014652	     30.93430168	     71.40391948	     -8.38124349	     71.03722831	     27.20617353	     18.39405179	    -13.83110264	    -15.22832572	      4.82223160	      0.00090033	     -0.03106625	     -0.00485832	      0.01642284	     -0.01841552	     -0.00853417	      0.00538680	     -0.06629876	     -0.00240838	      0.00671835	     -0.18370181	     -0.00026700	     -0.00351317	      0.00096177	      0.00019224	      0.00030655	      0.00012262	      0.00061310	      0.00039238	      0.00117715	      0.00066214	      0.00003648	     -0.00014690	     -0.00017628	      0.00249400	      0.00875014	      0.00608705	     -0.00815834	      0.01969838	     -0.01868387	      0.00249400	      0.00875014	      0.00608705	      0.00054953	      0.01826116	     -0.00959556	      0.00394495	      0.00486584	      0.01596034	      0.00000000	      0.00774242	      0.00000000	     -0.00714383	     -0.03301381	     -0.00638377	      0.01514721	     -0.00050819	     -0.00419330	     -0.00088770	      0.01487946	     -0.00608705	      0.00245173	      0.02147377	     -0.01775391	     -0.00596024	      0.01289272	     -0.00545299	     -0.01242773	      0.02722265	     -0.03047754	     -0.02333370	      0.01441448	     -0.00731292	     -0.01547126	      0.03144977	     -0.03808635
      1.26666667	     -0.32135393	      0.13611036	     -0.13611036	      0.32135393	     -0.06506763	      0.52585374	      0.23636764	     -0.23636764	     -0.52585374	      0.06506763	     98.08881184	     76.08340047	     -1.71197273	    -22.42495577	     30.57900656	     29.94132034	      0.13329792	     -0.46771705	      0.16636062	     -0.23385853	      7.02871525	     11.83204281	    -39.34252072	    -57.78166485	     12.01153849	     13.05960018	     13.43969511	    -23.91428592	     76.57561246	      9.54383530	     76.72805456	     36.57960327	     70.78594664	     -8.26881244	     70.23178449	     31.10984528	     17.72797046	    -13.81607381	    -15.41999095	      4.87816804	      0.00091146	     -0.03110482	     -0.00486454	      0.01643988	     -0.01850694	     -0.00847288	      0.00533767	     -0.06633053	     -0.00246193	      0.00678316	     -0.18368994	     -0.00027692	     -0.00359295	      0.00098668	      0.00019121	      0.00029539	      0.00011816	      0.00059078	      0.00037810	      0.00113430	      0.00063805	      0.00003636	     -0.00014831	     -0.00017798	      0.00249385	      0.00874960	      0.00608668	     -0.00815784	      0.01969716	     -0.01868272	      0.00249385	      0.00874960	      0.00608668	      0.00054949	      0.01826003	     -0.00959497	      0.00394478	      0.00486554	      0.01595990	      0.00000000	      0.00774145	      0.00000000	     -0.00714339	     -0.03301177	     -0.00638297	      0.01513626	     -0.00050756	     -0.00418556	     -0.00088764	      0.01487854	     -0.00608668	      0.00245158	      0.02147244	     -0.01775281	     -0.00595987	      0.01289192	     -0.00545265	     -0.01242697	      0.02722097	     -0.03047565	     -0.02333226	      0.01441359	     -0.00731247	     -0.01547030	      0.03144783	     -0.03808400
      1.30000000	     -0.32106237	      0.13598687	     -0.13598687	      0.32106237	     -0.06500860	      0.52537663	      0.23615318	     -0.23615318	     -0.52537663	      0.06500860	     98.12856926	     76.01437002	     -1.71266662	    -22.65436527	     30.55462352	     29.63483119	      0.13291907	     -0.46664616	      0.16592897	     -0.23332308	      7.12372740	     11.83636730	    -39.30088293	    -57.81427488	     11.99011830	     12.97045892	     13.40917355	    -23.89250874	     76.60119151	      9.57302958	     76.69444181	     36.49871846	     70.77540030	     -8.24412702	     70.23360084	     31.06361195	     17.87409609	    -13.85064294	    -15.37011301	      4.88570100	      0.00091065	     -0.03110203	     -0.00486408	      0.01643215	     -0.01850031	     -0.00850121	      0.00536032	     -0.06631588	     -0.00243724	      0.00675326	     -0.18369543	     -0.00027238	     -0.00355617	      0.00097518	      0.00019172	      0.00029508	      0.00011803	      0.00059016	      0.00037770	      0.00113311	      0.00063738	      0.00003624	     -0.00014990	     -0.00017988	      0.00249158	      0.00874166	      0.00608115	     -0.00815044	      0.01967929	     -0.01866577	      0.00249158	      0.00874166	      0.00608115	      0.00054899	      0.01824346	     -0.00958626	      0.00394216	      0.00486113	      0.01595349	      0.00000000	      0.00772731	      0.00000000	     -0.00713691	     -0.03298182	     -0.00637123	      0.01526085	     -0.00051483	     -0.00427414	     -0.00088684	      0.01486504	     -0.00608115	      0.00244935	      0.02145296	     -0.01773670	     -0.00595446	      0.01288022	     -0.00544770	     -0.01241569	      0.02719628	     -0.03044800	     -0.02331109	      0.01440051	     -0.00730583	     -0.01545627	      0.03141930	     -0.03804945
      1.33333333	     -0.32157597	      0.13620441	     -0.13620441	      0.32157597	     -0.06511259	      0.52621708	      0.23653095	     -0.23653095	     -0.52621708	      0.06511259	     98.13385500	     76.13597038	     -1.71275888	    -22.17285149	     30.18534401	     27.42132471	      0.11830769	     -0.50231803	      0.14910408	     -0.25115902	      7.26369110	     13.42796233	    -38.88394575	    -59.21007623	     12.76503483	     12.89891008	     11.85178384	    -17.63051290	     76.74925334	      9.41705423	     77.81254631	     27.78568210	     70.54588965	     -8.67984631	     71.50522379	     25.13136762	     20.08867554	    -13.83966024	    -17.14611100	      4.83838936	      0.00089844	     -0.03105970	     -0.00485727	      0.01637025	     -0.01840000	     -0.00870211	      0.00552387	     -0.06621013	     -0.00225893	      0.00653820	     -0.18373431	     -0.00023766	     -0.00329055	      0.00089293	      0.00019392	      0.00030266	      0.00012106	      0.00060531	      0.00038740	      0.00116220	      0.00065374	      0.00003604	     -0.00015229	     -0.00018275	      0.00249557	      0.00875564	      0.00609088	     -0.00816347	      0.01971077	     -0.01869563	      0.00249557	      0.00875564	      0.00609088	      0.00054987	      0.01827265	     -0.00960160	      0.00394677	      0.00486890	      0.01596477	      0.00000000	      0.00775223	      0.00000000	     -0.00714833	     -0.03303458	     -0.00639191	      0.01499853	     -0.00049959	     -0.00408914	     -0.00088825	      0.01488882	     -0.00609088	      0.00245327	      0.02148728	     -0.01776507	     -0.00596399	      0.01290083	     -0.00545642	     -0.01243555	      0.02723978	     -0.03049671	     -0.02334838	      0.01442355	     -0.00731752	     -0.01548099	      0.03146956	     -0.03811032
